<?xml version="1.0" encoding="UTF-8"?>
<svg width="190" height="131" id="Layer_1" data-name="Layer 1" xmlns="http://www.w3.org/2000/svg" viewBox="0 0 113.58 48.43">
  <path d="m29.56,11.82v12.1h-4.29V5.91c1.22.46,2.27,1.26,3.03,2.31.76,1.05,1.2,2.3,1.26,3.6Zm3.89.28v11.82h4.21v-11.29c0-.88.35-1.72.98-2.34.62-.62,1.46-.97,2.34-.98h1.54v-3.81h-2.43c-.87,0-1.73.16-2.54.49s-1.54.82-2.15,1.43c-.62.61-1.11,1.34-1.44,2.14-.33.8-.51,1.66-.51,2.53m-20.03,6.92l-4.45-13.52h-4.41l6.56,18.41h4.65l6.52-18.41h-4.41l-4.45,13.52ZM29.48,0h-4.21v5.06c1.08-.4,2.04-1.08,2.78-1.97.74-.89,1.23-1.96,1.43-3.09Zm40.83,16.51c0,2.39-1.25,3.97-3.44,3.97s-3.44-1.58-3.44-3.97V5.5h-4.29v10.73c0,5.22,3.6,8.13,7.73,8.13s7.77-2.91,7.77-8.13V5.5h-4.33v11.01Zm39.13-4.49v11.94h-4.05v-1.58s-.12.08-.16.16c-1.46,1.24-3.34,1.9-5.26,1.86-3.36,0-6.19-2.06-6.19-5.58,0-4.21,3.44-6.15,7.69-6.15.93,0,1.85.12,2.75.36h.08l.12.04.12.04h.08l.12.04c.16.04.32.08.44.12.08.04.16.04.24.08v-1.01c-.02-.48-.13-.95-.34-1.39-.21-.43-.5-.82-.86-1.14-.36-.32-.78-.56-1.24-.71-.46-.15-.94-.21-1.42-.16-.91-.01-1.8.23-2.57.71-.77.47-1.4,1.15-1.8,1.96l-2.87-2.71c.78-1.22,1.85-2.21,3.13-2.89,1.28-.67,2.71-1,4.15-.96,4.53,0,7.81,2.23,7.81,6.96m-4.05,4.78c-1.3-.53-2.69-.8-4.09-.81-2.1,0-3.48.85-3.48,2.47,0,1.25.97,2.31,2.95,2.31,1.69,0,3.33-.6,4.61-1.7v-2.27Zm-18.94-3.92l-2.91-.69-.37-.12c-.38-.08-.73-.28-1-.57-.26-.29-.42-.66-.46-1.05,0-.93.93-1.74,2.55-1.74.86.01,1.7.23,2.45.64.75.41,1.4.99,1.88,1.7l2.68-2.91c-.86-.98-1.92-1.76-3.1-2.29-1.19-.53-2.48-.8-3.78-.79-3.89,0-6.72,2.06-6.72,5.5,0,3.2,2.15,4.98,5.59,5.83l2.42.61c.28.08.53.16.81.24,1.01.4,1.34.93,1.34,1.58,0,.89-.65,1.9-2.87,1.9-1.04.01-2.07-.22-3-.69-.93-.46-1.73-1.15-2.35-1.99l-2.71,2.75c.91,1.16,2.08,2.09,3.41,2.71,1.34.62,2.8.91,4.28.85,4.86,0,7.33-2.51,7.33-5.71s-2.31-5.02-5.46-5.79m-31.52,7.25c-2.39,0-2.99-.69-2.99-3.36v-7.45h4.41v-3.81h-4.41V0h-4.25v5.5h-2.71v3.85h2.71v8.09c0,4.66,1.54,6.56,6.35,6.56,1.34,0,2.15-.08,2.27-.08v-3.85c-.12,0-.97.04-1.38.04Z" style="fill: #fff;"/>
  <path d="m25.72,38.44h2.1v7.16h-2.1v-7.16Zm18.82,3.68v.32h-4.65c.04,1.09.44,1.7,1.34,1.7.16.01.32,0,.48-.06.15-.05.29-.14.41-.25.12-.11.21-.25.27-.4s.09-.31.09-.47h2.06c-.08,1.5-1.13,2.75-3.32,2.75-2.47,0-3.48-1.5-3.48-3.72s1.17-3.68,3.52-3.68,3.28,1.42,3.28,3.8m-2.06-.85c-.04-.73-.4-1.42-1.25-1.42-.81,0-1.21.49-1.29,1.42h2.55Zm-8.46-2.95c-.47-.02-.94.09-1.36.32-.41.23-.76.57-.99.98h-.04v-1.17h-2.1v7.16h2.1v-3.97c-.02-.2,0-.41.08-.6.07-.19.18-.37.32-.51.14-.15.32-.26.51-.33.19-.07.39-.1.6-.09.81,0,1.13.49,1.13,1.42v4.13h2.1v-4.69c0-1.7-.61-2.63-2.35-2.63m69.85,2.07c0-.24.2-.61.85-.61.61,0,1.09.28,1.09.93h2.02c-.04-1.54-1.13-2.43-3.12-2.43s-2.95.97-2.95,2.27c0,2.75,4.09,1.82,4.09,3.04,0,.4-.28.65-1.01.65-.65,0-1.25-.24-1.29-1.05h-2.02c.04,1.9,1.34,2.51,3.36,2.51s3.04-.89,3.04-2.27c.04-2.75-4.05-1.86-4.05-3.03Zm-77.13-5.26c-.32,0-.63.13-.86.36-.23.23-.36.54-.36.86s.13.63.36.86c.23.23.54.36.86.36.16,0,.32-.01.48-.07.15-.06.29-.15.4-.26.11-.11.2-.25.26-.4.06-.15.08-.31.07-.48.01-.16,0-.33-.07-.48-.06-.15-.15-.29-.26-.41-.12-.12-.25-.2-.41-.26-.15-.06-.32-.08-.48-.07Zm-24.08,6.27h4.49v-1.78H2.65v-2.1h4.73v-1.83H.39v9.87h7.12v-1.82H2.61v-2.35h.04Zm10.97-3.08c-.47-.02-.94.09-1.36.32-.41.23-.76.57-.99.98v-1.17h-2.1v7.16h2.1v-3.97c-.02-.2,0-.41.08-.6.07-.19.18-.37.32-.51.14-.15.32-.26.51-.33.19-.07.39-.1.6-.09.81,0,1.13.49,1.13,1.42v4.13h2.1v-4.69c-.04-1.7-.69-2.63-2.39-2.63Zm7.85.12h2.99v1.58h-1.29c.12.31.17.64.16.97.01.37-.05.74-.2,1.08-.14.34-.36.65-.63.9-.27.25-.6.44-.95.55-.35.11-.73.15-1.09.1-.4,0-.8-.06-1.17-.2-.12.12-.19.28-.2.44,0,.93,5.22-.73,5.22,2.27,0,1.17-.73,2.18-3.76,2.18-2.63,0-3.44-.61-3.44-1.62,0-.25.07-.49.19-.71.13-.21.31-.39.53-.51-.19-.11-.35-.27-.45-.46s-.16-.41-.15-.63c0-.33.11-.65.3-.93.19-.27.45-.49.76-.61-.25-.25-.44-.54-.57-.87-.13-.33-.18-.68-.16-1.03,0-1.58,1.05-2.63,2.91-2.63.34,0,.68.04,1.01.12m-2.43,7.41c-.09.06-.16.14-.21.23-.05.09-.08.19-.08.3,0,.4.32.69,1.9.69,1.3,0,1.7-.4,1.7-.65-.04-.69-1.86-.4-3.32-.57m2.43-4.9c0-.81-.28-1.3-1.01-1.3-.69,0-1.01.49-1.01,1.3s.28,1.3,1.01,1.3c.69.04,1.01-.49,1.01-1.3Zm91.42,2.83c-.77,0-1.09-.32-1.09-.97v-2.71h1.7v-1.66h-1.7v-1.86h-2.1v1.86h-.97v1.66h.97v2.75c0,2.02.89,2.87,2.79,2.87.37,0,.74-.03,1.09-.12v-1.87c-.23.03-.46.05-.69.04m-19.5-8.66c-.32,0-.63.13-.86.36-.23.23-.36.54-.36.86s.13.63.36.86c.23.23.54.36.86.36s.63-.13.86-.36c.23-.23.36-.54.36-.86s-.13-.63-.36-.86c-.23-.23-.54-.36-.86-.36Zm-1.06,10.48h2.1v-7.16h-2.1v7.16Zm-8.46,0h2.23v-4.01h4.33v-1.78h-4.33v-2.27h4.61v-1.82h-6.88v9.87h.04Zm-8.18-7.16h3v1.58h-1.29c.12.31.17.64.16.97.01.37-.05.74-.2,1.08-.14.34-.36.65-.63.9-.27.25-.6.44-.95.55-.35.11-.73.15-1.09.1-.4,0-.8-.06-1.17-.2-.12.12-.19.28-.2.44,0,.93,5.22-.73,5.22,2.27,0,1.17-.73,2.18-3.76,2.18-2.63,0-3.44-.61-3.44-1.62,0-.25.07-.49.19-.71.13-.21.31-.39.53-.51-.19-.11-.35-.27-.45-.46-.11-.19-.16-.41-.15-.63,0-.33.11-.65.3-.93.19-.27.45-.49.76-.61-.25-.25-.44-.54-.57-.87-.13-.33-.18-.68-.16-1.03,0-1.58,1.05-2.63,2.91-2.63.34,0,.68.04,1.01.12m-2.43,7.41c-.09.06-.16.14-.21.23-.05.09-.08.19-.08.3,0,.4.32.69,1.9.69,1.29,0,1.7-.4,1.7-.65-.04-.69-1.86-.4-3.32-.57m2.43-4.9c0-.81-.28-1.3-1.01-1.3-.69,0-1.01.49-1.01,1.3s.28,1.3,1.01,1.3c.69.04,1.01-.49,1.01-1.3Zm22.62-1.34l-.04-1.13h-2.1v7.16h2.1v-3.64c-.01-.21.01-.42.09-.61.07-.2.18-.37.33-.52.15-.15.32-.27.51-.34.19-.08.4-.11.61-.1.32,0,.63.05.93.16v-2.18c-.2-.06-.4-.09-.61-.08-.39.03-.77.16-1.09.39-.32.23-.57.54-.73.9m-30.47-1.29c-.47-.02-.94.09-1.36.32-.41.23-.76.57-.99.98v-1.17h-2.1v7.16h2.1v-3.97c-.02-.2,0-.41.08-.6s.18-.37.32-.51c.14-.15.32-.26.51-.33.19-.07.39-.1.6-.09.81,0,1.13.49,1.13,1.42v4.13h2.1v-4.69c-.04-1.7-.65-2.63-2.39-2.63m-11.9,1.29l-.04-1.13h-2.1v7.16h2.1v-3.64c-.01-.21.01-.42.09-.61.07-.2.18-.37.33-.52.15-.15.32-.27.51-.34.19-.08.4-.11.61-.1.32,0,.63.05.93.16v-2.18c-.2-.06-.4-.09-.61-.08-.39.03-.77.16-1.09.39-.32.23-.57.54-.73.9m-3.56,2.51v.32h-4.65c.04,1.09.44,1.7,1.34,1.7.16.01.32,0,.48-.06.15-.05.29-.14.41-.25.12-.11.21-.25.27-.4s.09-.31.09-.47h2.06c-.08,1.5-1.13,2.75-3.32,2.75-2.47,0-3.48-1.5-3.48-3.72s1.17-3.68,3.52-3.68,3.28,1.42,3.28,3.8Zm-2.1-.85c-.04-.73-.4-1.42-1.25-1.42-.81,0-1.21.49-1.29,1.42h2.55Zm9.23,4.33h2.1v-7.16h-2.1v7.16Zm1.05-10.48c-.16,0-.32.03-.46.09-.15.06-.28.15-.39.26-.11.11-.2.25-.26.39s-.09.31-.09.46.03.32.09.46.15.28.26.39c.11.11.25.2.39.26.15.06.31.09.46.09.16,0,.32-.01.48-.07.15-.06.29-.15.4-.26.11-.11.2-.25.26-.4.06-.15.08-.31.07-.48.01-.16,0-.33-.07-.48-.06-.15-.15-.29-.26-.41-.12-.12-.25-.2-.41-.26-.15-.06-.32-.08-.48-.07Z" style="fill: #51f2b8;"/>
</svg>